<svg width="13" height="16" viewBox="0 0 13 16" fill="none" xmlns="http://www.w3.org/2000/svg">
<path fill-rule="evenodd" clip-rule="evenodd" d="M3.73841 0.444219C3.73843 0.326516 3.78518 0.213639 3.86839 0.13039C3.9516 0.0471415 4.06445 0.000332828 4.18216 0.00025L8.61938 0C8.73711 0.000272936 8.84993 0.0472113 8.93311 0.130527C9.01629 0.213842 9.06304 0.326738 9.06313 0.444469V1.54187H3.73841V0.444219ZM11.0341 15.3643C11.0227 15.5373 10.9457 15.6995 10.8187 15.8176C10.6918 15.9357 10.5245 16.0008 10.3511 15.9996H2.39947C2.22611 15.9992 2.05935 15.9331 1.93267 15.8148C1.80599 15.6964 1.72878 15.5345 1.71653 15.3616L1.03609 5.40794H11.7603L11.0342 15.3642L11.0341 15.3643ZM12.8018 4.50644H0V3.47519C0.000190312 3.20168 0.10891 2.93943 0.302289 2.74601C0.495667 2.55259 0.757899 2.44381 1.03141 2.44356L11.7703 2.44322C12.0438 2.44364 12.3059 2.55251 12.4992 2.74595C12.6926 2.93939 12.8013 3.20161 12.8015 3.47509V4.50634L12.8018 4.50644ZM4.33962 13.6268C4.33962 13.686 4.35128 13.7446 4.37393 13.7992C4.39658 13.8539 4.42978 13.9036 4.47163 13.9455C4.51348 13.9873 4.56316 14.0205 4.61784 14.0432C4.67252 14.0658 4.73113 14.0775 4.79031 14.0775C4.8495 14.0775 4.9081 14.0658 4.96278 14.0432C5.01746 14.0205 5.06715 13.9873 5.109 13.9455C5.15085 13.9036 5.18404 13.8539 5.20669 13.7992C5.22934 13.7446 5.241 13.686 5.241 13.6268V7.30656C5.24005 7.1877 5.19218 7.07403 5.10781 6.9903C5.02344 6.90657 4.90941 6.85957 4.79055 6.85953C4.67168 6.85949 4.55762 6.90641 4.47319 6.99008C4.38876 7.07375 4.34081 7.18739 4.33978 7.30625V13.6268H4.33962ZM7.55525 13.6268C7.55525 13.7463 7.60274 13.861 7.68727 13.9455C7.7718 14.03 7.88645 14.0775 8.006 14.0775C8.12555 14.0775 8.2402 14.03 8.32473 13.9455C8.40926 13.861 8.45675 13.7463 8.45675 13.6268V7.30656C8.4558 7.18769 8.40792 7.074 8.32354 6.99026C8.23916 6.90652 8.12511 6.85951 8.00623 6.85947C7.88735 6.85943 7.77327 6.90636 7.68883 6.99004C7.60439 7.07372 7.55644 7.18737 7.55541 7.30625L7.55525 13.6268Z" fill="#FC0005"/>
</svg>
