<svg width="40" height="40" viewBox="0 0 40 40" fill="none" xmlns="http://www.w3.org/2000/svg">
<rect width="40" height="40" rx="20" fill="white" fill-opacity="0.1"/>
<path d="M16.6874 12.0011L19.294 9.39446C19.6845 9.00393 20.3176 9.00393 20.7082 9.39446L23.3148 12.0011H27.0011C27.5533 12.0011 28.0011 12.4488 28.0011 13.0011V16.6873L30.6077 19.294C30.9982 19.6845 30.9982 20.3177 30.6077 20.7082L28.0011 23.3148V27.0011C28.0011 27.5534 27.5533 28.0011 27.0011 28.0011H23.3148L20.7082 30.6077C20.3176 30.9982 19.6845 30.9982 19.294 30.6077L16.6874 28.0011H13.0011C12.4488 28.0011 12.0011 27.5534 12.0011 27.0011V23.3148L9.39446 20.7082C9.00393 20.3177 9.00393 19.6845 9.39446 19.294L12.0011 16.6873V13.0011C12.0011 12.4488 12.4488 12.0011 13.0011 12.0011H16.6874ZM14.0011 14.0011V17.5158L11.5158 20.0011L14.0011 22.4864V26.0011H17.5158L20.0011 28.4864L22.4863 26.0011H26.0011V22.4864L28.4863 20.0011L26.0011 17.5158V14.0011H22.4863L20.0011 11.5158L17.5158 14.0011H14.0011ZM20.0011 24.0011C17.7919 24.0011 16.0011 22.2102 16.0011 20.0011C16.0011 17.7919 17.7919 16.0011 20.0011 16.0011C22.2102 16.0011 24.0011 17.7919 24.0011 20.0011C24.0011 22.2102 22.2102 24.0011 20.0011 24.0011ZM20.0011 22.0011C21.1056 22.0011 22.0011 21.1057 22.0011 20.0011C22.0011 18.8965 21.1056 18.0011 20.0011 18.0011C18.8965 18.0011 18.0011 18.8965 18.0011 20.0011C18.0011 21.1057 18.8965 22.0011 20.0011 22.0011Z" fill="white"/>
</svg>
