<svg width="40" height="40" viewBox="0 0 40 40" fill="none" xmlns="http://www.w3.org/2000/svg">
<rect width="40" height="40" rx="20" fill="white" fill-opacity="0.1"/>
<path fill-rule="evenodd" clip-rule="evenodd" d="M29 16.25H13.25C13.0511 16.25 12.8603 16.329 12.7197 16.4697C12.579 16.6103 12.5 16.8011 12.5 17C12.5 17.1989 12.579 17.3897 12.7197 17.5303C12.8603 17.671 13.0511 17.75 13.25 17.75H29V25.25C29.0003 25.3486 28.9811 25.4462 28.9435 25.5374C28.9059 25.6285 28.8507 25.7113 28.781 25.781C28.7113 25.8507 28.6285 25.9059 28.5374 25.9435C28.4462 25.9811 28.3486 26.0003 28.25 26H11.75C11.5511 26 11.3603 25.921 11.2197 25.7803C11.079 25.6397 11 25.4489 11 25.25V15.5C11 15.3011 10.921 15.1103 10.7803 14.9697C10.6397 14.829 10.4489 14.75 10.25 14.75C10.0511 14.75 9.86032 14.829 9.71967 14.9697C9.57902 15.1103 9.5 15.3011 9.5 15.5V25.25C9.5 25.8467 9.73705 26.419 10.159 26.841C10.581 27.2629 11.1533 27.5 11.75 27.5H28.25C28.847 27.5 29.4193 27.263 29.8407 26.8407C30.0498 26.632 30.2157 26.384 30.3288 26.111C30.4419 25.8381 30.5001 25.5455 30.5 25.25V14.75C30.5 14.153 30.263 13.5808 29.8407 13.1593C29.632 12.9502 29.384 12.7843 29.111 12.6712C28.8381 12.5581 28.5455 12.4999 28.25 12.5H12.5C12.3011 12.5 12.1103 12.579 11.9697 12.7197C11.829 12.8603 11.75 13.0511 11.75 13.25C11.75 13.4489 11.829 13.6397 11.9697 13.7803C12.1103 13.921 12.3011 14 12.5 14H28.25C28.3486 13.9997 28.4462 14.0189 28.5374 14.0565C28.6285 14.0941 28.7113 14.1493 28.781 14.219C28.8507 14.2887 28.9059 14.3715 28.9435 14.4626C28.9811 14.5538 29.0003 14.6514 29 14.75V16.25ZM17.75 20C17.75 19.6022 17.592 19.2206 17.3107 18.9393C17.0294 18.658 16.6478 18.5 16.25 18.5H14C13.6022 18.5 13.2206 18.658 12.9393 18.9393C12.658 19.2206 12.5 19.6022 12.5 20V23.75C12.5 24.1478 12.658 24.5294 12.9393 24.8107C13.2206 25.092 13.6022 25.25 14 25.25H16.25C16.6478 25.25 17.0294 25.092 17.3107 24.8107C17.592 24.5294 17.75 24.1478 17.75 23.75V20ZM20 24.5H26.75C26.9489 24.5 27.1397 24.421 27.2803 24.2803C27.421 24.1397 27.5 23.9489 27.5 23.75C27.5 23.5511 27.421 23.3603 27.2803 23.2197C27.1397 23.079 26.9489 23 26.75 23H20C19.8011 23 19.6103 23.079 19.4697 23.2197C19.329 23.3603 19.25 23.5511 19.25 23.75C19.25 23.9489 19.329 24.1397 19.4697 24.2803C19.6103 24.421 19.8011 24.5 20 24.5ZM16.25 20V23.75H14V20H16.25ZM20 20.75H26.75C26.9489 20.75 27.1397 20.671 27.2803 20.5303C27.421 20.3897 27.5 20.1989 27.5 20C27.5 19.8011 27.421 19.6103 27.2803 19.4697C27.1397 19.329 26.9489 19.25 26.75 19.25H20C19.8011 19.25 19.6103 19.329 19.4697 19.4697C19.329 19.6103 19.25 19.8011 19.25 20C19.25 20.1989 19.329 20.3897 19.4697 20.5303C19.6103 20.671 19.8011 20.75 20 20.75Z" fill="white"/>
</svg>
