<svg width="40" height="40" viewBox="0 0 40 40" fill="none" xmlns="http://www.w3.org/2000/svg">
<rect width="40" height="40" rx="20" fill="white" fill-opacity="0.1"/>
<path d="M28.2505 30.3125H16.2505C15.7035 30.3125 15.1789 30.0952 14.7921 29.7084C14.4053 29.3216 14.188 28.797 14.188 28.25V27.9125C12.9084 27.616 11.767 26.8949 10.9497 25.8666C10.1324 24.8383 9.6875 23.5635 9.6875 22.25C9.6875 20.9365 10.1324 19.6617 10.9497 18.6334C11.767 17.6051 12.9084 16.884 14.188 16.5875V11.75C14.188 11.203 14.4053 10.6784 14.7921 10.2916C15.1789 9.9048 15.7035 9.6875 16.2505 9.6875H24.628C24.8999 9.687 25.1691 9.74043 25.4202 9.84471C25.6712 9.94899 25.8991 10.102 26.0905 10.295L29.7055 13.91C29.9031 14.1059 30.0587 14.3398 30.1632 14.5977C30.2676 14.8555 30.3186 15.1319 30.313 15.41V28.25C30.313 28.797 30.0957 29.3216 29.7089 29.7084C29.3222 30.0952 28.7975 30.3125 28.2505 30.3125ZM15.313 28.0625V28.25C15.313 28.4986 15.4118 28.7371 15.5876 28.9129C15.7634 29.0887 16.0019 29.1875 16.2505 29.1875H28.2505C28.4992 29.1875 28.7376 29.0887 28.9135 28.9129C29.0893 28.7371 29.188 28.4986 29.188 28.25V16.0625H26.0005C25.4535 16.0625 24.9289 15.8452 24.5421 15.4584C24.1553 15.0716 23.938 14.547 23.938 14V10.8125H16.2505C16.0019 10.8125 15.7634 10.9113 15.5876 11.0871C15.4118 11.2629 15.313 11.5014 15.313 11.75V16.4375H15.5005C17.0421 16.4375 18.5205 17.0499 19.6106 18.1399C20.7006 19.23 21.313 20.7084 21.313 22.25C21.313 23.7916 20.7006 25.27 19.6106 26.3601C18.5205 27.4501 17.0421 28.0625 15.5005 28.0625H15.313ZM15.5005 17.5625C14.5734 17.5625 13.6672 17.8374 12.8963 18.3525C12.1254 18.8676 11.5246 19.5996 11.1699 20.4562C10.8151 21.3127 10.7222 22.2552 10.9031 23.1645C11.084 24.0738 11.5304 24.909 12.186 25.5646C12.8415 26.2201 13.6768 26.6666 14.5861 26.8474C15.4953 27.0283 16.4378 26.9355 17.2944 26.5807C18.1509 26.2259 18.883 25.6251 19.398 24.8542C19.9131 24.0834 20.188 23.1771 20.188 22.25C20.188 21.0068 19.6942 19.8145 18.8151 18.9354C17.936 18.0564 16.7437 17.5625 15.5005 17.5625ZM25.063 10.9175V14C25.063 14.2486 25.1618 14.4871 25.3376 14.6629C25.5134 14.8387 25.7519 14.9375 26.0005 14.9375H29.083C29.0366 14.8524 28.9786 14.7741 28.9105 14.705L25.2955 11.09C25.2264 11.022 25.1482 10.9639 25.063 10.9175ZM26.7505 25.0625H23.0005C22.8514 25.0625 22.7083 25.0032 22.6028 24.8978C22.4973 24.7923 22.438 24.6492 22.438 24.5C22.438 24.3508 22.4973 24.2077 22.6028 24.1023C22.7083 23.9968 22.8514 23.9375 23.0005 23.9375H26.7505C26.8997 23.9375 27.0428 23.9968 27.1483 24.1023C27.2538 24.2077 27.313 24.3508 27.313 24.5C27.313 24.6492 27.2538 24.7923 27.1483 24.8978C27.0428 25.0032 26.8997 25.0625 26.7505 25.0625ZM14.3755 23.9375C14.2308 23.9264 14.0962 23.8591 14.0005 23.75C13.9083 23.6469 13.8573 23.5134 13.8573 23.375C13.8573 23.2366 13.9083 23.1031 14.0005 23L14.9605 22.04V20C14.9605 19.8508 15.0198 19.7077 15.1253 19.6023C15.2308 19.4968 15.3739 19.4375 15.523 19.4375C15.6722 19.4375 15.8153 19.4968 15.9208 19.6023C16.0263 19.7077 16.0855 19.8508 16.0855 20V22.25C16.0854 22.3991 16.0261 22.5421 15.9205 22.6475L14.7505 23.75C14.6549 23.8591 14.5202 23.9264 14.3755 23.9375ZM26.7505 22.0625H23.7505C23.6014 22.0625 23.4583 22.0032 23.3528 21.8978C23.2473 21.7923 23.188 21.6492 23.188 21.5C23.188 21.3508 23.2473 21.2077 23.3528 21.1023C23.4583 20.9968 23.6014 20.9375 23.7505 20.9375H26.7505C26.8997 20.9375 27.0428 20.9968 27.1483 21.1023C27.2538 21.2077 27.313 21.3508 27.313 21.5C27.313 21.6492 27.2538 21.7923 27.1483 21.8978C27.0428 22.0032 26.8997 22.0625 26.7505 22.0625ZM26.7505 19.0625H23.0005C22.8514 19.0625 22.7083 19.0032 22.6028 18.8978C22.4973 18.7923 22.438 18.6492 22.438 18.5C22.438 18.3508 22.4973 18.2077 22.6028 18.1023C22.7083 17.9968 22.8514 17.9375 23.0005 17.9375H26.7505C26.8997 17.9375 27.0428 17.9968 27.1483 18.1023C27.2538 18.2077 27.313 18.3508 27.313 18.5C27.313 18.6492 27.2538 18.7923 27.1483 18.8978C27.0428 19.0032 26.8997 19.0625 26.7505 19.0625ZM21.5005 16.0625H19.2505C19.1014 16.0625 18.9583 16.0032 18.8528 15.8978C18.7473 15.7923 18.688 15.6492 18.688 15.5C18.688 15.3508 18.7473 15.2077 18.8528 15.1023C18.9583 14.9968 19.1014 14.9375 19.2505 14.9375H21.5005C21.6497 14.9375 21.7928 14.9968 21.8983 15.1023C22.0038 15.2077 22.063 15.3508 22.063 15.5C22.063 15.6492 22.0038 15.7923 21.8983 15.8978C21.7928 16.0032 21.6497 16.0625 21.5005 16.0625Z" fill="white"/>
</svg>
