<svg width="40" height="40" viewBox="0 0 40 40" fill="none" xmlns="http://www.w3.org/2000/svg">
<rect width="40" height="40" rx="20" fill="white" fill-opacity="0.1"/>
<path d="M29.8183 27.8736C28.3905 25.4052 26.1902 23.6352 23.6224 22.7961C24.8925 22.04 25.8794 20.8878 26.4313 19.5166C26.9833 18.1453 27.0699 16.6308 26.6777 15.2055C26.2856 13.7803 25.4365 12.5232 24.2608 11.6273C23.0851 10.7313 21.6478 10.2461 20.1696 10.2461C18.6914 10.2461 17.2541 10.7313 16.0783 11.6273C14.9026 12.5232 14.0535 13.7803 13.6614 15.2055C13.2693 16.6308 13.3558 18.1453 13.9078 19.5166C14.4598 20.8878 15.4466 22.04 16.7168 22.7961C14.1489 23.6343 11.9486 25.4043 10.5208 27.8736C10.4685 27.959 10.4337 28.054 10.4187 28.153C10.4036 28.2521 10.4086 28.3531 10.4332 28.4502C10.4578 28.5472 10.5016 28.6384 10.5621 28.7183C10.6225 28.7981 10.6983 28.8651 10.785 28.9152C10.8718 28.9653 10.9676 28.9975 11.067 29.0099C11.1664 29.0224 11.2673 29.0148 11.3636 28.9876C11.46 28.9604 11.55 28.9142 11.6283 28.8517C11.7065 28.7892 11.7715 28.7117 11.8193 28.6236C13.5855 25.5711 16.7074 23.7486 20.1696 23.7486C23.6318 23.7486 26.7536 25.5711 28.5199 28.6236C28.5677 28.7117 28.6326 28.7892 28.7109 28.8517C28.7891 28.9142 28.8791 28.9604 28.9755 28.9876C29.0719 29.0148 29.1727 29.0224 29.2721 29.0099C29.3715 28.9975 29.4674 28.9653 29.5541 28.9152C29.6408 28.8651 29.7166 28.7981 29.7771 28.7183C29.8375 28.6384 29.8813 28.5472 29.9059 28.4502C29.9306 28.3531 29.9355 28.2521 29.9205 28.153C29.9054 28.054 29.8707 27.959 29.8183 27.8736ZM14.9196 16.9986C14.9196 15.9603 15.2275 14.9453 15.8043 14.0819C16.3812 13.2185 17.2012 12.5456 18.1605 12.1483C19.1198 11.7509 20.1754 11.6469 21.1938 11.8495C22.2122 12.0521 23.1476 12.5521 23.8819 13.2863C24.6161 14.0206 25.1161 14.956 25.3187 15.9744C25.5213 16.9928 25.4173 18.0484 25.0199 19.0077C24.6226 19.967 23.9497 20.787 23.0863 21.3639C22.223 21.9407 21.2079 22.2486 20.1696 22.2486C18.7776 22.2472 17.4431 21.6936 16.4589 20.7093C15.4747 19.7251 14.9211 18.3906 14.9196 16.9986Z" fill="white"/>
</svg>
