<svg width="40" height="40" viewBox="0 0 40 40" fill="none" xmlns="http://www.w3.org/2000/svg">
<rect width="40" height="40" rx="20" fill="white" fill-opacity="0.1"/>
<path d="M27.9782 14.8922C27.9678 14.3792 27.9579 13.8946 27.9579 13.4258C27.9579 13.2494 27.8833 13.0802 27.7505 12.9555C27.6177 12.8308 27.4375 12.7607 27.2497 12.7607C24.2212 12.7607 21.9153 11.9433 19.9933 10.1883C19.8611 10.0676 19.684 10 19.4996 10C19.3152 10 19.1381 10.0676 19.0059 10.1883C17.0841 11.9433 14.7786 12.7607 11.7503 12.7607C11.5625 12.7607 11.3823 12.8308 11.2495 12.9555C11.1167 13.0802 11.0421 13.2494 11.0421 13.4258C11.0421 13.8947 11.0323 14.3794 11.0218 14.8925C10.9248 19.6663 10.7918 26.2042 19.2677 28.9633C19.4179 29.0122 19.5813 29.0122 19.7315 28.9633C28.208 26.2042 28.0752 19.666 27.9782 14.8922ZM19.4997 27.6292C12.2305 25.1493 12.3404 19.7168 12.4379 14.9179C12.4438 14.6299 12.4495 14.3507 12.4534 14.0771C15.2898 13.9646 17.558 13.1574 19.4997 11.569C21.4415 13.1574 23.7101 13.9647 26.5467 14.0771C26.5506 14.3506 26.5563 14.6296 26.5622 14.9174C26.6596 19.7165 26.7694 25.1492 19.4997 27.6292Z" fill="white"/>
<path d="M21.9363 17.1947L18.5184 20.4044L17.0599 19.0347C16.9263 18.9134 16.7474 18.8463 16.5616 18.8478C16.3758 18.8493 16.1981 18.9192 16.0668 19.0426C15.9354 19.166 15.861 19.3329 15.8594 19.5073C15.8578 19.6818 15.9293 19.8498 16.0584 19.9752L18.0177 21.8152C18.0834 21.877 18.1614 21.9261 18.2473 21.9595C18.3333 21.9929 18.4254 22.01 18.5184 22.0099C18.6114 22.01 18.7035 21.9929 18.7894 21.9595C18.8754 21.9261 18.9534 21.877 19.0191 21.8152L22.9377 18.1353C23.0034 18.0735 23.0556 18.0002 23.0912 17.9196C23.1268 17.8389 23.1452 17.7524 23.1452 17.6651C23.1452 17.5777 23.1269 17.4912 23.0913 17.4106C23.0557 17.3299 23.0035 17.2566 22.9377 17.1948C22.805 17.0701 22.6249 17 22.4371 17C22.2493 17 22.0691 17.07 21.9363 17.1947Z" fill="white"/>
</svg>
