<svg width="40" height="40" viewBox="0 0 40 40" fill="none" xmlns="http://www.w3.org/2000/svg">
<rect width="40" height="40" rx="20" fill="white" fill-opacity="0.1"/>
<path d="M18.5 28.25C18.5 28.4489 18.421 28.6397 18.2803 28.7803C18.1397 28.921 17.9489 29 17.75 29H12.5C12.1022 29 11.7206 28.842 11.4393 28.5607C11.158 28.2794 11 27.8978 11 27.5V12.5C11 12.1022 11.158 11.7206 11.4393 11.4393C11.7206 11.158 12.1022 11 12.5 11H17.75C17.9489 11 18.1397 11.079 18.2803 11.2197C18.421 11.3603 18.5 11.5511 18.5 11.75C18.5 11.9489 18.421 12.1397 18.2803 12.2803C18.1397 12.421 17.9489 12.5 17.75 12.5H12.5V27.5H17.75C17.9489 27.5 18.1397 27.579 18.2803 27.7197C18.421 27.8603 18.5 28.0511 18.5 28.25ZM28.7806 19.4694L25.0306 15.7194C24.8899 15.5786 24.699 15.4996 24.5 15.4996C24.301 15.4996 24.1101 15.5786 23.9694 15.7194C23.8286 15.8601 23.7496 16.051 23.7496 16.25C23.7496 16.449 23.8286 16.6399 23.9694 16.7806L26.4397 19.25H17.75C17.5511 19.25 17.3603 19.329 17.2197 19.4697C17.079 19.6103 17 19.8011 17 20C17 20.1989 17.079 20.3897 17.2197 20.5303C17.3603 20.671 17.5511 20.75 17.75 20.75H26.4397L23.9694 23.2194C23.8286 23.3601 23.7496 23.551 23.7496 23.75C23.7496 23.949 23.8286 24.1399 23.9694 24.2806C24.1101 24.4214 24.301 24.5004 24.5 24.5004C24.699 24.5004 24.8899 24.4214 25.0306 24.2806L28.7806 20.5306C28.8504 20.461 28.9057 20.3783 28.9434 20.2872C28.9812 20.1962 29.0006 20.0986 29.0006 20C29.0006 19.9014 28.9812 19.8038 28.9434 19.7128C28.9057 19.6217 28.8504 19.539 28.7806 19.4694Z" fill="white"/>
</svg>
