<svg width="20" height="20" viewBox="0 0 20 20" fill="none" xmlns="http://www.w3.org/2000/svg">
<g id="Frame" clip-path="url(#clip0_66999_1086)">
<g id="Group">
<path id="Vector" d="M11.3366 14.0913C11.1322 14.1104 10.9269 14.0642 10.7503 13.9595C10.6866 13.8941 10.6384 13.8152 10.6093 13.7286C10.5801 13.6421 10.5709 13.5501 10.5821 13.4595C10.5869 13.3067 10.6051 13.1546 10.6366 13.0049C10.6671 12.8333 10.7066 12.6634 10.7548 12.4958L11.2912 10.6504C11.3465 10.4682 11.383 10.2809 11.4003 10.0913C11.4003 9.88674 11.4275 9.74581 11.4275 9.66401C11.4332 9.48405 11.3981 9.30514 11.3249 9.14064C11.2517 8.97614 11.1423 8.8303 11.0048 8.71401C10.6623 8.45104 10.2357 8.32178 9.80481 8.35038C9.49601 8.35502 9.18962 8.40558 8.8957 8.50038C8.57449 8.60038 8.2366 8.72007 7.88207 8.85948L7.72754 9.45948C7.83207 9.42311 7.95938 9.38221 8.1048 9.33675C8.24355 9.29564 8.38737 9.27422 8.53207 9.27311C8.73505 9.25111 8.93932 9.30097 9.10934 9.41401C9.16648 9.4822 9.20923 9.56125 9.23501 9.6464C9.26079 9.73156 9.26906 9.82104 9.25934 9.90948C9.25883 10.0623 9.24207 10.2147 9.20934 10.364C9.1775 10.5231 9.1366 10.6913 9.0866 10.8685L8.5457 12.7231C8.50211 12.8955 8.46722 13.0699 8.44117 13.2458C8.41993 13.3964 8.40929 13.5483 8.40934 13.7003C8.40824 13.8815 8.44864 14.0604 8.52742 14.2235C8.60621 14.3866 8.7213 14.5295 8.86387 14.6412C9.21169 14.9083 9.64432 15.0407 10.082 15.014C10.3903 15.0203 10.6974 14.9758 10.9911 14.8821C11.2487 14.7942 11.5927 14.6685 12.023 14.5049L12.1684 13.9321C12.0519 13.9805 11.9318 14.02 11.8093 14.0503C11.6544 14.0857 11.4953 14.0995 11.3366 14.0913ZM11.9048 5.34132C11.6574 5.11412 11.3315 4.9919 10.9957 5.00042C10.6601 4.99285 10.3345 5.11495 10.0866 5.34132C9.63223 5.73311 9.58148 6.41909 9.97332 6.8735C10.0082 6.91401 10.0461 6.95187 10.0866 6.98678C10.6043 7.44979 11.3871 7.44979 11.9048 6.98678C12.3591 6.59112 12.4068 5.90206 12.0111 5.44768C11.9782 5.40981 11.9427 5.37427 11.9048 5.34132Z" fill="#192A48"/>
<path id="Vector_2" d="M10 0C4.47715 0 0 4.47715 0 10C0 15.5229 4.47715 20 10 20C15.5229 20 20 15.5229 20 10C20 4.47715 15.5229 0 10 0ZM10 19.0909C4.97922 19.0909 0.909102 15.0208 0.909102 10C0.909102 4.97922 4.97922 0.909102 10 0.909102C15.0208 0.909102 19.0909 4.97922 19.0909 10C19.0909 15.0208 15.0208 19.0909 10 19.0909Z" fill="#192A48"/>
</g>
</g>
<defs>
<clipPath id="clip0_66999_1086">
<rect width="20" height="20" fill="white"/>
</clipPath>
</defs>
</svg>
